<svg xmlns="http://www.w3.org/2000/svg" xmlns:xlink="http://www.w3.org/1999/xlink" version="1.0" id="Layer_1" x="0px" y="0px" width="997.056px" height="954.312px" viewBox="0 0 997.056 954.312" enable-background="new 0 0 997.056 954.312" xml:space="preserve" style="&#10;">
<g>
	<rect x="0.5" y="9.692" fill="#46B974" width="317.647" height="932.354" style="&#10;    fill: rgb(241, 241, 241);&#10;"/>
	<path fill="#04A55B" d="M334.5,933.514c0,11.209-4.593,20.297-10.257,20.297H41.817C19.526,951.462,0.5,953.623,0.5,942.414   l48.353-480.588c1-7.564,4.555-12.986,9.4-16.782c3.128-2.451,14.213-7.425,16.436-7.425l249.554,3.514   c5.665,0,10.257,9.087,10.257,20.297V933.514z" style="&#10;    fill: rgb(214, 214, 214);&#10;"/>
	<polygon fill="#46B974" points="995.824,953.24 592.755,953.811 68.356,441.135 467.52,439.595  " style="&#10;    fill: rgb(241, 241, 241);&#10;"/>
	<path fill="#0DB170" d="M91.574,465.232"/>
	<polygon fill="#04A55B" points="66.979,440.337 468.008,441.704 736.083,293.296 586.52,99.928  " style="&#10;    fill: rgb(214, 214, 214);&#10;"/>
	<polyline fill="#04A55B" points="577.233,107.021 522.958,37.914 886.009,38.402 799,390.878 725.353,297.928  " style="&#10;    fill: rgb(214, 214, 214);&#10;"/>
	<line fill="#46B974" x1="68.356" y1="441.135" x2="125.855" y2="441.217"/>
</g>
</svg>